<svg id="visual" viewBox="0 0 2560 1200" width="2560" height="1200" xmlns="http://www.w3.org/2000/svg" xmlns:xlink="http://www.w3.org/1999/xlink" version="1.1"><path d="M0 37L284 13L569 205L853 97L1138 109L1422 97L1707 169L1991 49L2276 145L2560 13L2560 0L2276 0L1991 0L1707 0L1422 0L1138 0L853 0L569 0L284 0L0 0Z" fill="#000000"></path><path d="M0 133L284 61L569 313L853 169L1138 169L1422 181L1707 253L1991 109L2276 193L2560 97L2560 11L2276 143L1991 47L1707 167L1422 95L1138 107L853 95L569 203L284 11L0 35Z" fill="#1a1a1a"></path><path d="M0 421L284 385L569 553L853 325L1138 385L1422 433L1707 577L1991 217L2276 265L2560 265L2560 95L2276 191L1991 107L1707 251L1422 179L1138 167L853 167L569 311L284 59L0 131Z" fill="#2c2c2c"></path><path d="M0 469L284 421L569 577L853 445L1138 433L1422 493L1707 589L1991 289L2276 289L2560 325L2560 263L2276 263L1991 215L1707 575L1422 431L1138 383L853 323L569 551L284 383L0 419Z" fill="#404040"></path><path d="M0 541L284 445L569 613L853 445L1138 469L1422 589L1707 637L1991 313L2276 289L2560 385L2560 323L2276 287L1991 287L1707 587L1422 491L1138 431L853 443L569 575L284 419L0 467Z" fill="#565656"></path><path d="M0 841L284 589L569 649L853 745L1138 577L1422 817L1707 697L1991 733L2276 649L2560 685L2560 383L2276 287L1991 311L1707 635L1422 587L1138 467L853 443L569 611L284 443L0 539Z" fill="#6c6c6c"></path><path d="M0 913L284 589L569 745L853 829L1138 637L1422 889L1707 769L1991 745L2276 721L2560 793L2560 683L2276 647L1991 731L1707 695L1422 815L1138 575L853 743L569 647L284 587L0 839Z" fill="#838383"></path><path d="M0 1045L284 613L569 865L853 841L1138 733L1422 913L1707 829L1991 913L2276 733L2560 913L2560 791L2276 719L1991 743L1707 767L1422 887L1138 635L853 827L569 743L284 587L0 911Z" fill="#9a9a9a"></path><path d="M0 1045L284 889L569 1033L853 925L1138 1009L1422 997L1707 865L1991 1045L2276 937L2560 961L2560 911L2276 731L1991 911L1707 827L1422 911L1138 731L853 839L569 863L284 611L0 1043Z" fill="#b2b2b2"></path><path d="M0 1117L284 1057L569 1177L853 1045L1138 1117L1422 1153L1707 973L1991 1129L2276 1177L2560 1093L2560 959L2276 935L1991 1043L1707 863L1422 995L1138 1007L853 923L569 1031L284 887L0 1043Z" fill="#cbcbcb"></path><path d="M0 1165L284 1165L569 1201L853 1177L1138 1153L1422 1153L1707 1105L1991 1165L2276 1189L2560 1129L2560 1091L2276 1175L1991 1127L1707 971L1422 1151L1138 1115L853 1043L569 1175L284 1055L0 1115Z" fill="#e5e5e5"></path><path d="M0 1201L284 1201L569 1201L853 1201L1138 1201L1422 1201L1707 1201L1991 1201L2276 1201L2560 1201L2560 1127L2276 1187L1991 1163L1707 1103L1422 1151L1138 1151L853 1175L569 1199L284 1163L0 1163Z" fill="#ffffff"></path></svg>